<svg width="13" height="14" viewBox="0 0 13 14" fill="none" xmlns="http://www.w3.org/2000/svg">
<path fill-rule="evenodd" clip-rule="evenodd" d="M5.4502 11C2.5507 11 0.200195 8.6495 0.200195 5.75C0.200195 2.85051 2.5507 0.5 5.4502 0.5C8.34969 0.5 10.7002 2.85051 10.7002 5.75C10.7002 7.13625 10.1629 8.39701 9.28524 9.33541L11.947 12.6626C12.1885 12.9645 12.1396 13.405 11.8377 13.6465C11.5358 13.888 11.0953 13.8391 10.8538 13.5372L8.2017 10.2221C7.40161 10.7154 6.45914 11 5.4502 11ZM5.4501 9.5999C7.57639 9.5999 9.3001 7.8762 9.3001 5.7499C9.3001 3.62361 7.57639 1.8999 5.4501 1.8999C3.3238 1.8999 1.6001 3.62361 1.6001 5.7499C1.6001 7.8762 3.3238 9.5999 5.4501 9.5999Z" fill="black"/>
</svg>
